<svg version="1.1" baseProfile="full" xmlns="http://www.w3.org/2000/svg" width="133.25" height="121.07828521728516">
    <defs id="SvgjsDefs1014"></defs>
    <g id="SvgjsG1015" featurekey="root" fill="#ffffff" transform="matrix(1,0,0,1,NaN,NaN)"></g>
    <g id="SvgjsG1016" featurekey="symbol1" fill="#ffb9e9" transform="matrix(1.2168692671449854,0,0,1.2168692671449854,-5.465415370975082,-0.021881209642241828)">
        <path xmlns="http://www.w3.org/2000/svg" d="M70,91.3c-2.5,0-4.9-0.8-7-2.4L12.3,50.2c-2.6-2-4.3-5.1-4.5-8.4c-0.2-3.3,1-6.6,3.4-8.9l21.4-21.3  c3.1-3.1,7.7-4.2,11.9-2.7l40.3,13.8c5.7,1.9,8.9,7.8,7.5,13.6L81.2,82.5c-0.9,3.8-3.7,6.9-7.3,8.2C72.6,91.1,71.3,91.3,70,91.3z   M40.7,11.3c-2.2,0-4.4,0.9-6,2.5L13.3,35c-1.7,1.7-2.7,4.1-2.5,6.6c0.2,2.5,1.4,4.7,3.3,6.2l50.7,38.7c2.3,1.8,5.3,2.2,8,1.3  c2.7-1,4.8-3.2,5.4-6l11.1-46.2c1-4.3-1.3-8.6-5.5-10.1L43.5,11.7C42.6,11.4,41.7,11.3,40.7,11.3z"></path>
    </g>
    <g id="SvgjsG1017" featurekey="text1" fill="#020b25" transform="matrix(1.6,0,0,1.6,133,61)">
        <path d=""></path>
    </g>
</svg>