<svg version="1.1" baseProfile="full" xmlns="http://www.w3.org/2000/svg"  width="529.383056640625" height="121.07828521728516">
    <defs id="SvgjsDefs7526"></defs>
    <g id="SvgjsG7527" featurekey="root" fill="#ffffff" transform="matrix(1,0,0,1,NaN,NaN)"></g>
    <g id="SvgjsG7528" featurekey="symbol1" fill="#ffb9e9" transform="matrix(1.2168692671449854,0,0,1.2168692671449854,-5.465415370975082,-0.021881209642241828)">
        <path xmlns="http://www.w3.org/2000/svg" d="M70,91.3c-2.5,0-4.9-0.8-7-2.4L12.3,50.2c-2.6-2-4.3-5.1-4.5-8.4c-0.2-3.3,1-6.6,3.4-8.9l21.4-21.3  c3.1-3.1,7.7-4.2,11.9-2.7l40.3,13.8c5.7,1.9,8.9,7.8,7.5,13.6L81.2,82.5c-0.9,3.8-3.7,6.9-7.3,8.2C72.6,91.1,71.3,91.3,70,91.3z   M40.7,11.3c-2.2,0-4.4,0.9-6,2.5L13.3,35c-1.7,1.7-2.7,4.1-2.5,6.6c0.2,2.5,1.4,4.7,3.3,6.2l50.7,38.7c2.3,1.8,5.3,2.2,8,1.3  c2.7-1,4.8-3.2,5.4-6l11.1-46.2c1-4.3-1.3-8.6-5.5-10.1L43.5,11.7C42.6,11.4,41.7,11.3,40.7,11.3z"></path>
    </g>
    <g id="SvgjsG7529" featurekey="text1" fill="#020b25" transform="matrix(5.32150749046643,0,0,5.32150749046643,129.27494830916302,-38.93791432494876)">
        <path d="M5.4 9.76 c2.08 0 3.7 1.4 4.26 2.96 l-0.94 0.48 c-0.62 -1.36 -1.74 -2.32 -3.32 -2.32 c-1.72 0 -2.9 1 -2.9 2.36 c0 1.24 0.82 2.06 2.48 2.72 l1.02 0.38 c2.34 0.9 4.02 1.88 4.02 4.2 c0 2.26 -2.16 3.76 -4.52 3.76 c-2.34 0 -4.3 -1.42 -4.8 -3.42 l1.04 -0.46 c0.48 1.62 1.88 2.72 3.76 2.72 c1.72 0 3.26 -1.04 3.26 -2.6 c0 -1.78 -1.3 -2.46 -3 -3.1 l-1.1 -0.42 c-2.16 -0.84 -3.4 -1.96 -3.4 -3.78 c0 -1.98 1.7 -3.48 4.14 -3.48 z M13.120000000000001 9.86 l0 1.14 l-1.22 0 l0 -1.14 l1.22 0 z M13.120000000000001 13.6 l0 10.4 l-1.22 0 l0 -10.4 l1.22 0 z M27.5 13.44 c1.8 0 3.8 1.12 3.8 4.38 l0 6.18 l-1.22 0 l0 -6.26 c0 -2.24 -1.22 -3.2 -2.78 -3.2 c-1.92 0 -3.02 1.56 -3.3 3.18 l0 6.28 l-1.22 0 l0 -6.26 c0 -2.24 -1.38 -3.2 -2.84 -3.2 c-2 0 -3 1.76 -3.24 3.18 l0 6.28 l-1.22 0 l0 -10.4 l1.22 0 l0 2.6 c0.1 -0.82 1.12 -2.76 3.44 -2.76 c1.36 0 3.02 0.76 3.62 2.72 c0.38 -1.22 1.66 -2.72 3.74 -2.72 z M38.64 13.42 c2.34 0 5.24 1.82 5.24 5.4 s-2.9 5.38 -5.24 5.38 c-1.84 0 -3.36 -0.94 -4.04 -2.42 l0 6.02 l-1.22 0 l0 -6.64 l0 -7.56 l1.22 0 l0 2.22 c0.68 -1.46 2.2 -2.4 4.04 -2.4 z M38.540000000000006 23.1 c1.86 0 4.14 -1.4 4.14 -4.28 c0 -2.9 -2.28 -4.3 -4.14 -4.3 c-1.94 0 -4 1.36 -4 4.3 c0 2.92 2.06 4.28 4 4.28 z M46.980000000000004 9.86 l0 14.14 l-1.22 0 l0 -14.14 l1.22 0 z M54.14 13.42 c2.36 0 5.46 1.82 5.12 5.86 l-9.18 0 c0.22 2.58 2.24 3.84 4.3 3.84 c1.46 0 2.52 -0.42 3.32 -1.3 l0.74 0.66 c-0.94 1.18 -2.32 1.72 -4.08 1.72 c-2.68 0 -5.5 -1.82 -5.5 -5.4 c0 -3.56 2.92 -5.38 5.28 -5.38 z M54.14 14.5 c-1.72 0 -3.82 1.26 -4.06 3.8 l8.1 0 c-0.14 -2.54 -2.32 -3.8 -4.04 -3.8 z M75.14 17 c0 2.24 -1 4.12 -2.48 5.4 l1.32 1.6 l-1.48 0 l-0.76 -0.9 c-1.12 0.7 -2.42 1.1 -3.72 1.1 c-3.56 0 -7.12 -2.98 -7.12 -7.2 s3.56 -7.2 7.12 -7.2 s7.12 2.98 7.12 7.2 z M68.02 23 c1.02 0 2.04 -0.3 2.94 -0.86 l-3.22 -3.9 l1.48 0 l2.66 3.22 c1.18 -1.06 1.98 -2.62 1.98 -4.46 c0 -3.54 -2.96 -6 -5.84 -6 s-5.84 2.46 -5.84 6 s2.96 6 5.84 6 z"></path>
    </g>
</svg>