<svg xmlns="http://www.w3.org/2000/svg" width="1440" height="900"><path d="M686,392L814,290L636,245Z" fill="#f97ea8" stroke="#f97ea8" stroke-width="1.51"/><path d="M814,290L796,144L636,245Z" fill="#f885ab" stroke="#f885ab" stroke-width="1.51"/><path d="M686,392L865,430L814,290Z" fill="#f56ea4" stroke="#f56ea4" stroke-width="1.51"/><path d="M814,290L1008,294L796,144Z" fill="#f27aa8" stroke="#f27aa8" stroke-width="1.51"/><path d="M636,245L495,280L686,392Z" fill="#fa89ac" stroke="#fa89ac" stroke-width="1.51"/><path d="M647,54L495,280L636,245Z" fill="#fa97b1" stroke="#fa97b1" stroke-width="1.51"/><path d="M796,144L647,54L636,245Z" fill="#fa92af" stroke="#fa92af" stroke-width="1.51"/><path d="M495,280L479,404L686,392Z" fill="#f987ab" stroke="#f987ab" stroke-width="1.51"/><path d="M686,392L825,606L865,430Z" fill="#f25f9f" stroke="#f25f9f" stroke-width="1.51"/><path d="M865,430L1008,294L814,290Z" fill="#f06aa4" stroke="#f06aa4" stroke-width="1.51"/><path d="M570,668L825,606L686,392Z" fill="#f05fa0" stroke="#f05fa0" stroke-width="1.51"/><path d="M865,430L1047,447L1008,294Z" fill="#eb5ba0" stroke="#eb5ba0" stroke-width="1.51"/><path d="M1035,614L1047,447L865,430Z" fill="#e84a9b" stroke="#e84a9b" stroke-width="1.51"/><path d="M647,54L418,59L495,280Z" fill="#fba4b6" stroke="#fba4b6" stroke-width="1.51"/><path d="M840,-64L613,-49L647,54Z" fill="#fca0b6" stroke="#fca0b6" stroke-width="1.51"/><path d="M840,-64L647,54L796,144Z" fill="#f996b0" stroke="#f996b0" stroke-width="1.51"/><path d="M1008,294L1006,62L796,144Z" fill="#f07daa" stroke="#f07daa" stroke-width="1.51"/><path d="M1182,107L1006,62L1008,294Z" fill="#e775a5" stroke="#e775a5" stroke-width="1.51"/><path d="M496,-72L418,59L647,54Z" fill="#fcafba" stroke="#fcafba" stroke-width="1.51"/><path d="M495,280L301,217L479,404Z" fill="#fa9bb3" stroke="#fa9bb3" stroke-width="1.51"/><path d="M1006,62L840,-64L796,144Z" fill="#f48dae" stroke="#f48dae" stroke-width="1.51"/><path d="M479,404L570,668L686,392Z" fill="#f673a5" stroke="#f673a5" stroke-width="1.51"/><path d="M1047,447L1106,424L1008,294Z" fill="#e5579c" stroke="#e5579c" stroke-width="1.51"/><path d="M1035,614L1106,424L1047,447Z" fill="#e14698" stroke="#e14698" stroke-width="1.51"/><path d="M418,59L301,217L495,280Z" fill="#fba9b8" stroke="#fba9b8" stroke-width="1.51"/><path d="M479,404L463,661L570,668Z" fill="#f172a6" stroke="#f172a6" stroke-width="1.51"/><path d="M301,217L329,474L479,404Z" fill="#fa97b0" stroke="#fa97b0" stroke-width="1.51"/><path d="M418,59L255,72L301,217Z" fill="#fcb5bb" stroke="#fcb5bb" stroke-width="1.51"/><path d="M613,-49L496,-72L647,54Z" fill="#fcaaba" stroke="#fcaaba" stroke-width="1.51"/><path d="M597,-308L496,-72L613,-49Z" fill="#fdb5c3" stroke="#fdb5c3" stroke-width="1.51"/><path d="M329,474L463,661L479,404Z" fill="#f580aa" stroke="#f580aa" stroke-width="1.51"/><path d="M949,800L1035,614L825,606Z" fill="#dd3897" stroke="#dd3897" stroke-width="1.51"/><path d="M825,606L1035,614L865,430Z" fill="#e84b9b" stroke="#e84b9b" stroke-width="1.51"/><path d="M570,668L810,771L825,606Z" fill="#e64c9a" stroke="#e64c9a" stroke-width="1.51"/><path d="M676,835L810,771L570,668Z" fill="#de4c97" stroke="#de4c97" stroke-width="1.51"/><path d="M840,-64L810,-275L613,-49Z" fill="#fca3bc" stroke="#fca3bc" stroke-width="1.51"/><path d="M1006,62L972,-116L840,-64Z" fill="#f28fb2" stroke="#f28fb2" stroke-width="1.51"/><path d="M1210,-28L972,-116L1006,62Z" fill="#e986ad" stroke="#e986ad" stroke-width="1.51"/><path d="M1106,424L1215,300L1008,294Z" fill="#e15b9c" stroke="#e15b9c" stroke-width="1.51"/><path d="M1407,499L1215,300L1106,424Z" fill="#d44992" stroke="#d44992" stroke-width="1.51"/><path d="M1215,300L1182,107L1008,294Z" fill="#e069a0" stroke="#e069a0" stroke-width="1.51"/><path d="M48,434L256,656L329,474Z" fill="#f790af" stroke="#f790af" stroke-width="1.51"/><path d="M273,-79L255,72L418,59Z" fill="#fcbebf" stroke="#fcbebf" stroke-width="1.51"/><path d="M463,661L482,781L570,668Z" fill="#e666a1" stroke="#e666a1" stroke-width="1.51"/><path d="M254,811L482,781L463,661Z" fill="#e26da1" stroke="#e26da1" stroke-width="1.51"/><path d="M482,781L676,835L570,668Z" fill="#de5a9b" stroke="#de5a9b" stroke-width="1.51"/><path d="M810,771L949,800L825,606Z" fill="#da3c95" stroke="#da3c95" stroke-width="1.51"/><path d="M1035,614L1221,631L1106,424Z" fill="#d73a94" stroke="#d73a94" stroke-width="1.51"/><path d="M770,976L949,800L810,771Z" fill="#cd338d" stroke="#cd338d" stroke-width="1.51"/><path d="M972,-116L810,-275L840,-64Z" fill="#f69bbc" stroke="#f69bbc" stroke-width="1.51"/><path d="M496,-72L273,-79L418,59Z" fill="#fcbbc1" stroke="#fcbbc1" stroke-width="1.51"/><path d="M64,284L329,474L301,217Z" fill="#fba5b6" stroke="#fba5b6" stroke-width="1.51"/><path d="M329,474L256,656L463,661Z" fill="#f17eaa" stroke="#f17eaa" stroke-width="1.51"/><path d="M501,-299L273,-79L496,-72Z" fill="#fcc1c9" stroke="#fcc1c9" stroke-width="1.51"/><path d="M1182,107L1210,-28L1006,62Z" fill="#e27ca5" stroke="#e27ca5" stroke-width="1.51"/><path d="M972,-116L988,-311L810,-275Z" fill="#f59dbf" stroke="#f59dbf" stroke-width="1.51"/><path d="M1287,86L1210,-28L1182,107Z" fill="#da77a1" stroke="#da77a1" stroke-width="1.51"/><path d="M1133,773L1221,631L1035,614Z" fill="#ce288f" stroke="#ce288f" stroke-width="1.51"/><path d="M1215,300L1321,247L1182,107Z" fill="#d7659b" stroke="#d7659b" stroke-width="1.51"/><path d="M1407,499L1321,247L1215,300Z" fill="#ce5094" stroke="#ce5094" stroke-width="1.51"/><path d="M1321,247L1287,86L1182,107Z" fill="#d56b9c" stroke="#d56b9c" stroke-width="1.51"/><path d="M810,-275L597,-308L613,-49Z" fill="#feaec3" stroke="#feaec3" stroke-width="1.51"/><path d="M255,72L117,126L301,217Z" fill="#fcbabd" stroke="#fcbabd" stroke-width="1.51"/><path d="M113,-122L117,126L255,72Z" fill="#fcc8c2" stroke="#fcc8c2" stroke-width="1.51"/><path d="M949,800L1133,773L1035,614Z" fill="#cf298f" stroke="#cf298f" stroke-width="1.51"/><path d="M597,-308L501,-299L496,-72Z" fill="#febdca" stroke="#febdca" stroke-width="1.51"/><path d="M117,126L64,284L301,217Z" fill="#fcb7bd" stroke="#fcb7bd" stroke-width="1.51"/><path d="M810,-275L988,-311L597,-308Z" fill="#fba9c5" stroke="#fba9c5" stroke-width="1.51"/><path d="M1132,-290L988,-311L972,-116Z" fill="#ee96bc" stroke="#ee96bc" stroke-width="1.51"/><path d="M1321,857L1303,623L1221,631Z" fill="#bd1986" stroke="#bd1986" stroke-width="1.51"/><path d="M1221,631L1303,623L1106,424Z" fill="#cf348f" stroke="#cf348f" stroke-width="1.51"/><path d="M676,835L770,976L810,771Z" fill="#d03d8f" stroke="#d03d8f" stroke-width="1.51"/><path d="M949,800L963,995L1133,773Z" fill="#c21d89" stroke="#c21d89" stroke-width="1.51"/><path d="M634,1028L770,976L676,835Z" fill="#c6418f" stroke="#c6418f" stroke-width="1.51"/><path d="M634,1028L676,835L482,781Z" fill="#d04f94" stroke="#d04f94" stroke-width="1.51"/><path d="M64,284L48,434L329,474Z" fill="#fba2b5" stroke="#fba2b5" stroke-width="1.51"/><path d="M256,656L254,811L463,661Z" fill="#e775a5" stroke="#e775a5" stroke-width="1.51"/><path d="M100,786L254,811L256,656Z" fill="#e37ca5" stroke="#e37ca5" stroke-width="1.51"/><path d="M273,-79L113,-122L255,72Z" fill="#fdc9c6" stroke="#fdc9c6" stroke-width="1.51"/><path d="M117,126L-43,122L64,284Z" fill="#fcc0c4" stroke="#fcc0c4" stroke-width="1.51"/><path d="M501,-299L233,-224L273,-79Z" fill="#fdcbce" stroke="#fdcbce" stroke-width="1.51"/><path d="M1303,623L1407,499L1106,424Z" fill="#cd378e" stroke="#cd378e" stroke-width="1.51"/><path d="M1572,49L1357,-62L1287,86Z" fill="#c8729f" stroke="#c8729f" stroke-width="1.51"/><path d="M1385,-257L1132,-290L1210,-28Z" fill="#db86af" stroke="#db86af" stroke-width="1.51"/><path d="M1210,-28L1132,-290L972,-116Z" fill="#e68cb4" stroke="#e68cb4" stroke-width="1.51"/><path d="M416,1003L634,1028L482,781Z" fill="#c95796" stroke="#c95796" stroke-width="1.51"/><path d="M48,434L84,673L256,656Z" fill="#f38eb0" stroke="#f38eb0" stroke-width="1.51"/><path d="M1287,86L1357,-62L1210,-28Z" fill="#d578a2" stroke="#d578a2" stroke-width="1.51"/><path d="M1572,49L1287,86L1321,247Z" fill="#c9699b" stroke="#c9699b" stroke-width="1.51"/><path d="M233,-224L113,-122L273,-79Z" fill="#fdd0cd" stroke="#fdd0cd" stroke-width="1.51"/><path d="M834,1127L963,995L770,976Z" fill="#b42d8a" stroke="#b42d8a" stroke-width="1.51"/><path d="M770,976L963,995L949,800Z" fill="#c12b8b" stroke="#c12b8b" stroke-width="1.51"/><path d="M1133,773L1321,857L1221,631Z" fill="#bc1785" stroke="#bc1785" stroke-width="1.51"/><path d="M271,945L482,781L254,811Z" fill="#d76b9c" stroke="#d76b9c" stroke-width="1.51"/><path d="M271,945L416,1003L482,781Z" fill="#ce639a" stroke="#ce639a" stroke-width="1.51"/><path d="M233,-224L139,-209L113,-122Z" fill="#fdd6d1" stroke="#fdd6d1" stroke-width="1.51"/><path d="M-99,-280L139,-209L233,-224Z" fill="#fedcd8" stroke="#fedcd8" stroke-width="1.51"/><path d="M1407,499L1469,484L1321,247Z" fill="#c54490" stroke="#c54490" stroke-width="1.51"/><path d="M1546,656L1469,484L1407,499Z" fill="#b72e8a" stroke="#b72e8a" stroke-width="1.51"/><path d="M1546,656L1407,499L1303,623Z" fill="#ba288a" stroke="#ba288a" stroke-width="1.51"/><path d="M64,284L-142,329L48,434Z" fill="#fdb0c0" stroke="#fdb0c0" stroke-width="1.51"/><path d="M48,434L-116,579L84,673Z" fill="#f697b7" stroke="#f697b7" stroke-width="1.51"/><path d="M-44,-71L-43,122L117,126Z" fill="#fdcdc9" stroke="#fdcdc9" stroke-width="1.51"/><path d="M-44,-71L117,126L113,-122Z" fill="#fdd0cb" stroke="#fdd0cb" stroke-width="1.51"/><path d="M100,786L271,945L254,811Z" fill="#d8749f" stroke="#d8749f" stroke-width="1.51"/><path d="M84,673L100,786L256,656Z" fill="#e983aa" stroke="#e983aa" stroke-width="1.51"/><path d="M-97,759L100,786L84,673Z" fill="#e687ae" stroke="#e687ae" stroke-width="1.51"/><path d="M1167,1038L1321,857L1133,773Z" fill="#ae0880" stroke="#ae0880" stroke-width="1.51"/><path d="M963,995L1167,1038L1133,773Z" fill="#b21684" stroke="#b21684" stroke-width="1.51"/><path d="M634,1028L834,1127L770,976Z" fill="#b8388c" stroke="#b8388c" stroke-width="1.51"/><path d="M642,1171L834,1127L634,1028Z" fill="#b13b8b" stroke="#b13b8b" stroke-width="1.51"/><path d="M-99,-280L-44,-71L113,-122Z" fill="#fddcd9" stroke="#fddcd9" stroke-width="1.51"/><path d="M1729,454L1566,286L1469,484Z" fill="#b3408d" stroke="#b3408d" stroke-width="1.51"/><path d="M1469,484L1566,286L1321,247Z" fill="#c04e93" stroke="#c04e93" stroke-width="1.51"/><path d="M-271,264L-142,329L-43,122Z" fill="#fdc4cc" stroke="#fdc4cc" stroke-width="1.51"/><path d="M-43,122L-142,329L64,284Z" fill="#fcbec6" stroke="#fcbec6" stroke-width="1.51"/><path d="M1182,1119L1167,1038L995,1220Z" fill="#980f7f" stroke="#980f7f" stroke-width="1.51"/><path d="M-142,329L-129,488L48,434Z" fill="#fdabc0" stroke="#fdabc0" stroke-width="1.51"/><path d="M1357,-62L1385,-257L1210,-28Z" fill="#d27fa9" stroke="#d27fa9" stroke-width="1.51"/><path d="M1132,-290L1385,-257L988,-311Z" fill="#e290b8" stroke="#e290b8" stroke-width="1.51"/><path d="M1473,-217L1385,-257L1357,-62Z" fill="#ca80ac" stroke="#ca80ac" stroke-width="1.51"/><path d="M425,1142L642,1171L634,1028Z" fill="#b24b90" stroke="#b24b90" stroke-width="1.51"/><path d="M425,1142L634,1028L416,1003Z" fill="#b95595" stroke="#b95595" stroke-width="1.51"/><path d="M-129,488L-116,579L48,434Z" fill="#faa1bd" stroke="#faa1bd" stroke-width="1.51"/><path d="M1566,286L1572,49L1321,247Z" fill="#bf6098" stroke="#bf6098" stroke-width="1.51"/><path d="M141,1017L271,945L100,786Z" fill="#cf739f" stroke="#cf739f" stroke-width="1.51"/><path d="M317,1161L416,1003L271,945Z" fill="#bd6399" stroke="#bd6399" stroke-width="1.51"/><path d="M317,1161L425,1142L416,1003Z" fill="#b55c96" stroke="#b55c96" stroke-width="1.51"/><path d="M1488,810L1546,656L1303,623Z" fill="#ae1885" stroke="#ae1885" stroke-width="1.51"/><path d="M1488,810L1303,623L1321,857Z" fill="#ad1082" stroke="#ad1082" stroke-width="1.51"/><path d="M1537,-131L1473,-217L1357,-62Z" fill="#c57caa" stroke="#c57caa" stroke-width="1.51"/><path d="M-125,984L141,1017L100,786Z" fill="#ce7aa5" stroke="#ce7aa5" stroke-width="1.51"/><path d="M1378,984L1488,810L1321,857Z" fill="#9d007c" stroke="#9d007c" stroke-width="1.51"/><path d="M1572,49L1537,-131L1357,-62Z" fill="#c075a3" stroke="#c075a3" stroke-width="1.51"/><path d="M1566,286L1659,149L1572,49Z" fill="#b46097" stroke="#b46097" stroke-width="1.51"/><path d="M1572,49L1720,-41L1537,-131Z" fill="#b571a0" stroke="#b571a0" stroke-width="1.51"/><path d="M1729,454L1649,230L1566,286Z" fill="#ae4b90" stroke="#ae4b90" stroke-width="1.51"/><path d="M-116,579L-97,759L84,673Z" fill="#ee8fb6" stroke="#ee8fb6" stroke-width="1.51"/><path d="M-281,629L-97,759L-116,579Z" fill="#f296bc" stroke="#f296bc" stroke-width="1.51"/><path d="M1167,1038L1378,984L1321,857Z" fill="#9d007c" stroke="#9d007c" stroke-width="1.51"/><path d="M995,1220L1167,1038L963,995Z" fill="#a31784" stroke="#a31784" stroke-width="1.51"/><path d="M995,1220L963,995L834,1127Z" fill="#a72286" stroke="#a72286" stroke-width="1.51"/><path d="M141,1017L317,1161L271,945Z" fill="#bd699b" stroke="#bd699b" stroke-width="1.51"/><path d="M425,1142L317,1161L642,1171Z" fill="#ad5492" stroke="#ad5492" stroke-width="1.51"/><path d="M1182,1119L1378,984L1167,1038Z" fill="#96027b" stroke="#96027b" stroke-width="1.51"/><path d="M1649,230L1659,149L1566,286Z" fill="#b15994" stroke="#b15994" stroke-width="1.51"/><path d="M153,1211L995,1220L642,1171Z" fill="#a7458c" stroke="#a7458c" stroke-width="1.51"/><path d="M642,1171L995,1220L834,1127Z" fill="#a52d86" stroke="#a52d86" stroke-width="1.51"/><path d="M-288,77L-271,264L-43,122Z" fill="#fdced0" stroke="#fdced0" stroke-width="1.51"/><path d="M-142,329L-282,510L-129,488Z" fill="#feacc3" stroke="#feacc3" stroke-width="1.51"/><path d="M-129,488L-282,510L-116,579Z" fill="#faa4c0" stroke="#faa4c0" stroke-width="1.51"/><path d="M1662,842L1546,656L1488,810Z" fill="#9a0d7f" stroke="#9a0d7f" stroke-width="1.51"/><path d="M1662,842L1670,600L1546,656Z" fill="#9d1582" stroke="#9d1582" stroke-width="1.51"/><path d="M1546,656L1670,600L1469,484Z" fill="#ac2888" stroke="#ac2888" stroke-width="1.51"/><path d="M1649,230L1729,454L1659,149Z" fill="#ac5191" stroke="#ac5191" stroke-width="1.51"/><path d="M139,-209L-99,-280L113,-122Z" fill="#fedcd8" stroke="#fedcd8" stroke-width="1.51"/><path d="M-44,-71L-288,77L-43,122Z" fill="#fdd5d0" stroke="#fdd5d0" stroke-width="1.51"/><path d="M501,-299L-99,-280L233,-224Z" fill="#fed7d4" stroke="#fed7d4" stroke-width="1.51"/><path d="M597,-308L-99,-280L501,-299Z" fill="#fed0d3" stroke="#fed0d3" stroke-width="1.51"/><path d="M-271,264L-282,510L-142,329Z" fill="#feb8c8" stroke="#feb8c8" stroke-width="1.51"/><path d="M1670,600L1729,454L1469,484Z" fill="#ab3088" stroke="#ab3088" stroke-width="1.51"/><path d="M1378,1210L1378,984L1182,1119Z" fill="#890079" stroke="#890079" stroke-width="1.51"/><path d="M1532,1182L1519,943L1378,984Z" fill="#820178" stroke="#820178" stroke-width="1.51"/><path d="M1378,984L1519,943L1488,810Z" fill="#93017b" stroke="#93017b" stroke-width="1.51"/><path d="M-271,264L-288,77L-282,510Z" fill="#ffc4cf" stroke="#ffc4cf" stroke-width="1.51"/><path d="M-320,-138L-288,77L-44,-71Z" fill="#fededa" stroke="#fededa" stroke-width="1.51"/><path d="M-282,510L-281,629L-116,579Z" fill="#f7a1c1" stroke="#f7a1c1" stroke-width="1.51"/><path d="M-121,1141L153,1211L141,1017Z" fill="#b471a0" stroke="#b471a0" stroke-width="1.51"/><path d="M-290,950L-281,629L-282,510Z" fill="#ee98be" stroke="#ee98be" stroke-width="1.51"/><path d="M1729,454L1720,-41L1659,149Z" fill="#aa5a93" stroke="#aa5a93" stroke-width="1.51"/><path d="M1659,149L1720,-41L1572,49Z" fill="#b06999" stroke="#b06999" stroke-width="1.51"/><path d="M1537,-131L1689,-215L1473,-217Z" fill="#ba7cab" stroke="#ba7cab" stroke-width="1.51"/><path d="M317,1161L153,1211L642,1171Z" fill="#ab5b94" stroke="#ab5b94" stroke-width="1.51"/><path d="M141,1017L153,1211L317,1161Z" fill="#b26899" stroke="#b26899" stroke-width="1.51"/><path d="M-125,984L100,786L-97,759Z" fill="#da82ab" stroke="#da82ab" stroke-width="1.51"/><path d="M-262,776L-125,984L-97,759Z" fill="#dc88b1" stroke="#dc88b1" stroke-width="1.51"/><path d="M-281,629L-262,776L-97,759Z" fill="#ea93ba" stroke="#ea93ba" stroke-width="1.51"/><path d="M1519,943L1662,842L1488,810Z" fill="#90007a" stroke="#90007a" stroke-width="1.51"/><path d="M1670,600L1662,842L1729,454Z" fill="#9e1d84" stroke="#9e1d84" stroke-width="1.51"/><path d="M1720,-41L1689,-215L1537,-131Z" fill="#b175a5" stroke="#b175a5" stroke-width="1.51"/><path d="M1473,-217L1689,-215L1385,-257Z" fill="#bf80ad" stroke="#bf80ad" stroke-width="1.51"/><path d="M995,1220L1378,1210L1182,1119Z" fill="#8b067a" stroke="#8b067a" stroke-width="1.51"/><path d="M1519,943L1664,926L1662,842Z" fill="#860078" stroke="#860078" stroke-width="1.51"/><path d="M-288,77L-320,-138L-282,510Z" fill="#fed2d4" stroke="#fed2d4" stroke-width="1.51"/><path d="M-99,-280L-320,-138L-44,-71Z" fill="#fee3e0" stroke="#fee3e0" stroke-width="1.51"/><path d="M1673,1161L1664,926L1519,943Z" fill="#770076" stroke="#770076" stroke-width="1.51"/><path d="M1662,842L1664,926L1729,454Z" fill="#930f7e" stroke="#930f7e" stroke-width="1.51"/><path d="M-99,-280L-273,-268L-320,-138Z" fill="#feeae7" stroke="#feeae7" stroke-width="1.51"/><path d="M-125,984L-121,1141L141,1017Z" fill="#be79a7" stroke="#be79a7" stroke-width="1.51"/><path d="M-290,950L-121,1141L-125,984Z" fill="#c280ae" stroke="#c280ae" stroke-width="1.51"/><path d="M-320,-138L-290,950L-282,510Z" fill="#ffb2c7" stroke="#ffb2c7" stroke-width="1.51"/><path d="M-281,629L-290,950L-262,776Z" fill="#e391b9" stroke="#e391b9" stroke-width="1.51"/><path d="M-262,776L-290,950L-125,984Z" fill="#d387b1" stroke="#d387b1" stroke-width="1.51"/><path d="M1378,1210L1532,1182L1378,984Z" fill="#7b0076" stroke="#7b0076" stroke-width="1.51"/><path d="M1532,1182L1673,1161L1519,943Z" fill="#700074" stroke="#700074" stroke-width="1.51"/><path d="M1664,926L1673,1161L1729,454Z" fill="#860077" stroke="#860077" stroke-width="1.51"/><path d="M1378,1210L1673,1161L1532,1182Z" fill="#6b0073" stroke="#6b0073" stroke-width="1.51"/><path d="M-290,950L-281,1188L-121,1141Z" fill="#b97fae" stroke="#b97fae" stroke-width="1.51"/><path d="M-121,1141L-281,1188L153,1211Z" fill="#ad75a6" stroke="#ad75a6" stroke-width="1.51"/></svg>